<svg width="1440" height="232" viewBox="0 0 1440 232" fill="none" xmlns="http://www.w3.org/2000/svg">
<path fill-rule="evenodd" clip-rule="evenodd" d="M0 109.993L39.6 97.8263C80.4 85.6599 159.6 61.3269 240 49.1605C320.4 36.994 399.6 36.994 480 30.9108C560.4 24.8275 639.6 12.6611 720 12.6611C800.4 12.6611 879.6 24.8275 960 79.5766C1040.4 134.326 1119.6 231.657 1200 231.657C1280.4 231.657 1359.6 134.326 1400.4 85.6599L1440 36.994V0.494615H1400.4C1359.6 0.494615 1280.4 0.494615 1200 0.494615C1119.6 0.494615 1040.4 0.494615 960 0.494615C879.6 0.494615 800.4 0.494615 720 0.494615C639.6 0.494615 560.4 0.494615 480 0.494615C399.6 0.494615 320.4 0.494615 240 0.494615C159.6 0.494615 80.4 0.494615 39.6 0.494615H0V109.993Z" fill="url(#paint0_linear_64_299)"/>
<defs>
<linearGradient id="paint0_linear_64_299" x1="1440" y1="116.076" x2="0" y2="116.076" gradientUnits="userSpaceOnUse">
<stop offset="1" stop-color="#009345"/>
</linearGradient>
</defs>
</svg>
